<?xml version="1.0" encoding="UTF-8" standalone="no"?>
<!-- Created with Inkscape (http://www.inkscape.org/) -->

<svg
   version="1.1"
   id="svg1"
   width="800"
   height="350"
   viewBox="0 0 800 350"
   xmlns="http://www.w3.org/2000/svg"
   xmlns:svg="http://www.w3.org/2000/svg">
  <defs
     id="defs1" />
  <g
     id="layer2"
     style="display:inline"
     transform="translate(-197.5,-236.50659)">
    <path
       id="path3"
       style="fill:#000000;fill-opacity:1;stroke:#000000;stroke-width:1;stroke-opacity:1"
       d="M 649,252 C 649,252 749,279 872,328 898,338 955,365 937,389 920,410 874,418 836,423 836,423 836,423 836,423 844,416 850,410 856,404 862,398 868,392 872,384 876,376 871,374 864,378 L 858,381 C 855,383 852,385 848,386 L 838,352 833,340 811,339 781,409 802,408 806,392 H 832 C 832,399 827,401 822,405 811,413 800,420 788,428 726,433 662,434 556,432 492,431 404,428 335,424 336,412 337,400 337,400 337,400 317,409 309,423 286,422 248,420 248,420 248,420 274,422 308,424 308,424 308,424 308,424 300,438 285,489 288,521 290,539 302,557 322,555 345,553 330,528 338,516 342,510 360,515 366,515 368,521 380,520 386,520 406,522 427,519 447,523 461,525 474,529 488,529 497,529 508,526 516,529 526,534 534,542 544,547 554,552 565,553 575,558 580,561 582,570 588,571 594,571 602,567 609,567 628,568 646,569 665,569 672,569 682,571 689,567 695,564 689,557 686,555 678,547 668,536 656,535 657,528 663,527 669,526 681,523 693,520 705,516 741,503 773,476 802,452 811,445 821,435 830,427 883,422 938,411 954,386 981,347 913,322 848,303 710,262 649,252 649,252 Z M 234,277 V 302 L 293,306 287,372 V 393 L 299,394 332,393 337,312 392,316 393,291 Z M 463,300 C 460,300 456,300 453,301 437,303 422,307 410,318 395,332 394,360 407,376 427,399 457,403 486,400 520,396 553,360 528,326 513,307 487,300 464,301 Z M 555,312 550,402 579,401 580,367 C 602,367 618,379 618,402 L 645,404 C 645,392 635,369 623,364 V 362 C 628,360 635,359 639,355 650,343 639,326 627,320 607,310 577,314 555,312 Z M 467,320 C 479,320 493,324 500,334 513,353 496,379 475,382 464,383 447,379 440,369 428,350 441,323 462,320 464,320 465,320 467,320 Z M 665,322 661,402 684,403 690,324 Z M 739,330 C 720,330 704,338 700,359 697,372 701,387 711,397 731,416 767,410 776,383 L 756,381 C 753,394 736,396 727,388 712,374 721,340 744,344 752,345 753,352 759,356 763,359 771,357 776,357 776,342 761,334 747,332 744,332 742,331 739,331 Z M 584,331 C 589,331 594,332 599,332 602,332 606,333 609,333 616,335 621,343 615,349 611,353 588,353 584,349 581,345 584,335 584,331 Z M 824,352 828,379 H 812 Z M 335,426 C 397,430 478,434 543,435 646,437 737,436 780,433 770,440 760,448 751,454 731,468 711,481 690,493 676,501 662,512 647,517 640,519 629,523 622,524 617,524 611,520 606,519 593,517 578,516 565,515 557,514 548,512 540,514 536,515 535,520 530,520 519,519 508,514 498,512 468,505 440,497 413,481 400,473 386,465 376,454 371,449 369,440 364,437 366,465 388,483 410,497 419,502 432,507 438,514 428,511 401,520 395,510 389,510 384,511 380,506 389,507 400,507 408,502 V 501 L 359,500 C 355,507 337,507 335,498 330,475 334,437 335,425 Z" />
  </g>
</svg>
